<?xml version="1.0" encoding="UTF-8" standalone="no"?>
<!DOCTYPE svg PUBLIC "-//W3C//DTD SVG 1.1//EN" "http://www.w3.org/Graphics/SVG/1.1/DTD/svg11.dtd">
<svg width="100%" height="100%" viewBox="0 0 371 524" version="1.1" xmlns="http://www.w3.org/2000/svg" xmlns:xlink="http://www.w3.org/1999/xlink" xml:space="preserve" xmlns:serif="http://www.serif.com/" style="fill-rule:evenodd;clip-rule:evenodd;stroke-linecap:round;stroke-linejoin:round;stroke-miterlimit:1.5;">
    <g transform="matrix(0.155029,0,0,0.155029,-14.8782,-112.833)">
        <g transform="matrix(1,0,0,1,-17.7728,-114.512)">
            <path d="M970.055,1416.74L1101.51,1461.8" style="fill:none;stroke:black;stroke-width:11.03px;"/>
        </g>
        <g transform="matrix(1,0,0,1,-17.7728,-114.512)">
            <path d="M1059.67,1385.17C1059.67,1385.17 1113.36,1303.68 1187.39,1391.5" style="fill:none;stroke:black;stroke-width:19.21px;"/>
        </g>
        <g transform="matrix(1,0,0,1,-17.7728,-114.512)">
            <path d="M1342.56,1411.3C1341.77,1411.89 1416.15,1340.05 1478.32,1417.58" style="fill:none;stroke:black;stroke-width:19.21px;"/>
        </g>
        <g transform="matrix(1,0,0,1,-17.7728,-114.512)">
            <path d="M581.628,1984.26C339.014,2278.59 866.216,2513.66 1341.33,2501.49C1822.17,2489.17 2276.97,2265.33 2079.33,2025.91" style="fill:none;stroke:black;stroke-width:30.08px;"/>
        </g>
        <g transform="matrix(1,0,0,1,-17.7728,-114.512)">
            <path d="M1947.05,1592.7C1947.05,1592.7 1946.85,1625.25 1957.44,1649.65L1971.59,1631.73C1971.59,1631.73 1964,1613.47 1947.05,1592.7Z" style="stroke:black;stroke-width:0.96px;"/>
        </g>
        <g transform="matrix(1,0,0,1,-17.7728,-114.512)">
            <path d="M1537.32,1699.82C1616.23,1695.49 1817.55,1480.34 1680.68,1381.56C1751.44,1387.59 1828.77,1417 1952.42,1590.85C1952.42,1590.85 2018.4,1992.04 2009.6,2063.79C2004.61,2104.44 1956.8,2102.74 1949.88,1997.24C1945.55,1931.23 1911.24,1660.56 1856.95,1696.62C1856.95,1696.62 1715.67,1758.77 1716.37,1774.27C1718.58,1823.08 1718.79,1936.17 1714.77,1952.95C1701.7,2007.42 1648.88,2012.93 1638.46,1975.97C1620.13,1910.91 1767.73,1917.36 1537.32,1699.82Z" style="stroke:black;stroke-width:0.96px;"/>
        </g>
        <g transform="matrix(1,0,0,1,-17.7728,-114.512)">
            <path d="M1716.37,1774.27C1713.98,1765.26 1757.58,1597.53 1853.88,1694.07C1855.37,1695.56 1904.28,1647.62 1935.58,1690.91C1953.33,1715.45 1959.67,1756.41 1964.34,1863.21C1967.6,1937.99 1938.1,1894.35 1934.14,1880.17C1929.77,1864.48 1915.59,1808.77 1907.18,1787.15C1884.84,1729.74 1870.6,1706.22 1855.17,1711.91C1835.76,1719.08 1717.13,1777.15 1716.37,1774.27Z" style="stroke:black;stroke-width:0.96px;"/>
        </g>
        <g transform="matrix(1,0,0,1,-17.7728,-114.512)">
            <path d="M842.15,1498.88L872.272,1454.68C872.272,1454.68 767.277,1477.14 709.068,1607.73C559.464,1689.31 1143.72,1923.48 1582.92,1795.63C1610.21,1787.68 1636.89,1938.73 1637.18,1965.1C1637.5,1992.88 1705.62,1967.14 1692.49,1891.34C1684.99,1848 1644.81,1785.69 1553,1706.84C1701.43,1659.22 1802.49,1589.9 1719.82,1417.26C1748.38,1491.13 1721,1550.28 1688.5,1576.23C1606.16,1641.99 1449.1,1705.01 1149.71,1674.18C1149.63,1674.17 1098.6,1714.99 975.186,1701.62C862.733,1689.45 738.832,1617.12 842.15,1498.88Z"/>
            <path d="M1553.95,1707.04C1594.25,1742.25 1690.59,1828.12 1694.52,1904.94C1697.88,1970.53 1637.69,1991.49 1636.72,1965.76C1635.28,1927.42 1608,1789.03 1583.36,1796.01C1559.49,1802.77 1361.1,1865.85 1059.05,1811.77C802.475,1765.83 618.77,1659.17 707.109,1608.27C707.634,1607.97 708.327,1607.87 708.695,1607.38C709.358,1606.52 748.207,1505.14 848.293,1462.41C861.412,1456.81 870.443,1454.65 872.427,1454.17L872.751,1454.72L842.532,1499.17C833.394,1509.85 760.291,1588.51 843.117,1653.36C909.377,1705.24 1030.6,1713.68 1101.68,1694.41C1136.37,1685.01 1149.04,1673.64 1149.69,1673.7C1214.08,1679.78 1516.41,1713.83 1688.2,1575.86C1721.06,1549.47 1746.57,1491.76 1720.66,1420.88C1719.97,1419 1719.63,1418.11 1719.47,1417.66C1719.44,1417.59 1719.41,1417.53 1719.38,1417.46L1719.4,1417.46C1719.33,1417.23 1719.33,1417.18 1719.36,1417.11C1719.48,1416.72 1719.78,1416.84 1720.11,1416.83C1720.15,1416.92 1720.2,1417.01 1720.24,1417.1L1720.27,1417.09C1720.3,1417.17 1720.34,1417.27 1720.38,1417.39C1742.69,1464.53 1769.74,1538.53 1728.71,1601.7C1691.29,1659.3 1609.43,1688.88 1553.95,1707.04ZM841.768,1498.58L871.144,1455.48C826.873,1467.56 754.828,1508.75 710.879,1604.89C709.477,1607.95 709.537,1608.01 709.301,1608.15C705.209,1610.5 650.74,1635.94 722.948,1690.57C846.327,1783.92 1251.02,1889.39 1577.64,1796.64C1584.43,1794.72 1592.33,1788.93 1605.67,1820.16C1621.24,1856.58 1636.58,1936.09 1637.68,1965.72C1638.68,1992.44 1707,1964.38 1691.44,1888.35C1675.62,1811.01 1569.48,1721.88 1552.51,1707.02L1552.62,1706.49C1605.54,1689.06 1689.86,1659.74 1727.9,1601.17C1766.64,1541.53 1743.98,1472.42 1724.13,1427.83C1731.3,1450.21 1742.93,1503.03 1710.89,1552.06C1704.36,1562.07 1695.51,1574.11 1661.29,1596.49C1507.53,1697.1 1279.75,1687.53 1156.65,1675.37C1154.38,1675.14 1152.13,1674.62 1149.85,1674.68C1149.73,1674.68 1099.32,1714.83 978.017,1702.41C908.842,1695.32 846.027,1668.25 818.442,1629.42C777.853,1572.29 828.466,1514.14 841.768,1498.58Z"/>
        </g>
        <g transform="matrix(0.726263,-1.24523,1.20016,0.699973,-1686.79,1522.15)">
            <path d="M983.62,1513.02C953.365,1531.99 897.727,1600 966.519,1773.44C865.368,1716.87 772.65,1466.5 983.62,1513.02Z" style="stroke:black;stroke-width:0.68px;"/>
        </g>
        <g transform="matrix(1,0,0,1,-17.7728,-114.512)">
            <path d="M1053.54,1246C1049.84,1239.9 1044.83,1137.99 1061.65,1129.87C1070.87,1125.41 1155,1178.56 1152.79,1193.93C1151.83,1200.56 1056.76,1251.31 1053.54,1246Z" style="stroke:black;stroke-width:0.96px;"/>
        </g>
        <g transform="matrix(1,0,0,1,-17.7728,-114.512)">
            <path d="M1068.54,1240.72C1066.63,1233.91 1057.98,1155.76 1072.4,1152.04C1088.02,1148 1140.15,1198.1 1139.53,1203.45C1139.25,1205.81 1069.09,1242.66 1068.54,1240.72Z" style="stroke:black;stroke-width:0.96px;"/>
        </g>
        <g transform="matrix(1,0,0,1,-17.7728,-114.512)">
            <path d="M1427.94,1473.13L1604.74,1456.2" style="fill:none;stroke:black;stroke-width:11.03px;"/>
        </g>
        <g transform="matrix(1,0,0,1,-17.7728,-114.512)">
            <path d="M1687.34,1373.93C1689.61,1374.84 1692.32,1374.2 1694.59,1375.11C1694.59,1375.11 1698.75,1380.84 1702.9,1387.22C1831.43,1584.69 1552.48,1689.86 1272.35,1684.44C1007.5,1679.32 734.636,1572.44 919.566,1326.26C928.678,1314.13 934.901,1306.44 942.458,1297.51C950.604,1287.89 952.821,1291.18 964.628,1295.63C966.22,1296.23 974.135,1299.21 965.419,1316.88C964.1,1319.55 887.618,1385 876.032,1461.07C843.084,1677.42 1366.28,1729.61 1609.93,1616.7C1707.52,1571.47 1767.63,1495.67 1687.88,1383.53C1687.32,1382.74 1686.23,1382.13 1686.18,1381.16C1685.97,1377.45 1687.55,1377.63 1687.34,1373.93Z"/>
        </g>
        <g transform="matrix(1,0,0,1,-17.7728,-114.512)">
            <path d="M954.398,1306.65C954.398,1306.65 950.088,1132.55 1034.78,1047.6C1034.78,1047.6 1115.99,1067.15 1209.9,1181.85C1209.9,1181.85 1271.35,1131.86 1453.34,1199.16C1453.34,1199.16 1576.52,1062.46 1661.31,1077.83C1661.31,1077.83 1711.48,1123.38 1690.38,1378.13C1690.38,1378.13 2067.25,1413.51 2082.93,2106.42C1950.09,2525.46 675.936,2552.58 580.351,2096.55C573.386,2063.32 585.226,1566.15 862.897,1449.22" style="fill:none;stroke:black;stroke-width:30.08px;"/>
        </g>
        <g transform="matrix(-1.55576,1.90525e-16,-1.36934e-16,-1.11815,3192.48,2978.15)">
            <path d="M1254.7,1457.32C1262.08,1460.09 1269.75,1468.19 1270.1,1472.93C1270.34,1476.07 1240.38,1474.91 1239.79,1471.82C1239.21,1468.73 1242.89,1463.27 1254.7,1457.32Z"/>
            <path d="M1254.86,1456.49C1260.14,1458.47 1265.56,1463.13 1268.47,1467.4C1269.8,1469.37 1270.6,1471.28 1270.72,1472.84L1270.72,1473.13L1270.66,1473.41L1270.58,1473.64L1270.47,1473.83C1270.32,1474.06 1270.06,1474.29 1269.69,1474.48C1268.66,1475 1266.51,1475.35 1263.8,1475.52C1256.73,1475.95 1245.77,1475.25 1241.46,1473.84C1240.61,1473.56 1239.99,1473.23 1239.66,1472.9C1239.52,1472.76 1239.42,1472.62 1239.34,1472.48L1239.26,1472.28L1239.19,1472.04C1238.92,1470.6 1239.35,1468.66 1240.95,1466.48C1243.06,1463.62 1247.28,1460.14 1254.49,1456.51C1254.61,1456.45 1254.74,1456.44 1254.86,1456.49ZM1254.7,1457.32C1242.89,1463.27 1239.21,1468.73 1239.79,1471.82C1240.38,1474.91 1270.34,1476.07 1270.1,1472.93C1269.75,1468.19 1262.08,1460.09 1254.7,1457.32Z"/>
        </g>
        <g transform="matrix(1,0,0,1,-17.7728,-114.512)">
            <path d="M1424.09,1521.44L1571.97,1564.53" style="fill:none;stroke:black;stroke-width:11.03px;"/>
        </g>
        <g transform="matrix(1,0,0,1,-17.7728,-114.512)">
            <path d="M959.511,1526.97L1092.07,1504.95" style="fill:none;stroke:black;stroke-width:11.03px;"/>
        </g>
        <g transform="matrix(1,0,0,1,-17.7728,-114.512)">
            <path d="M947.761,1477.14L1093.77,1478.69" style="fill:none;stroke:black;stroke-width:11.03px;"/>
        </g>
        <g transform="matrix(1,0,0,1,-17.7728,-114.512)">
            <path d="M1425.78,1500.02L1604.34,1507.62" style="fill:none;stroke:black;stroke-width:11.03px;"/>
        </g>
        <g transform="matrix(1,0,0,1,-17.7728,-114.512)">
            <path d="M1253.3,1493.94C1245.87,1507.62 1234.02,1519.66 1215.33,1517.75C1196.35,1515.8 1179.34,1499.83 1170.12,1488.89L1169.25,1487.84C1169,1487.53 1168.52,1487.31 1168.51,1486.91C1168.42,1482.82 1169.14,1482.87 1169.06,1478.8C1171.77,1479.38 1174.63,1478.95 1177.34,1479.52C1178.44,1479.76 1212.69,1517.01 1235.1,1492.74C1244.97,1482.05 1249.6,1464.68 1251.64,1457.56C1251.64,1457.54 1251.64,1457.53 1251.64,1457.51L1251.66,1457.51C1252.11,1455.92 1252.44,1454.85 1252.66,1454.5C1256.13,1449.03 1265.38,1451.07 1265.06,1458.69C1265,1460.18 1263.85,1472.39 1267.25,1487.17C1272.86,1511.55 1286.65,1518.73 1319.54,1500.74C1324.94,1497.79 1329.97,1494.53 1330.12,1494.42C1330.46,1494.19 1330.7,1493.68 1331.11,1493.69C1335.02,1493.88 1334.91,1494.64 1338.82,1494.83C1338.17,1497.35 1338.32,1500.03 1337.67,1502.55C1337.6,1502.83 1330.59,1508.18 1329.96,1508.65C1287.29,1541.23 1260.74,1527.84 1253.3,1493.94Z"/>
        </g>
        <g transform="matrix(1,0,0,1,-17.7728,-114.512)">
            <path d="M1198.2,1191.22C1273.95,1127.34 1466.01,1208.92 1466.01,1208.92C1466.01,1208.92 1469.81,1221.43 1470.69,1233.28C1471.82,1248.28 1471.51,1277.11 1446.74,1266.2C1429.43,1258.58 1392.97,1214.14 1392.97,1214.14C1373.8,1220.66 1353.96,1251.45 1353.96,1251.45C1311.44,1285.87 1305.09,1249.25 1305.09,1249.25C1299.22,1238.94 1304.49,1209.51 1304.49,1209.51C1294.9,1193.49 1267.97,1230.01 1255.62,1242.3C1243.28,1254.59 1233.97,1246.39 1233.97,1246.39C1228.33,1235.58 1198.2,1191.22 1198.2,1191.22Z" style="stroke:black;stroke-width:0.96px;stroke-linecap:butt;stroke-miterlimit:2;"/>
        </g>
        <g transform="matrix(1.24021,0,0,1.231,-387.058,-409.643)">
            <path d="M1617.57,1175.95C1607.06,1169.1 1538.32,1229.8 1537.33,1236.43C1536.79,1239.99 1594.59,1279.63 1600.38,1277.51C1605.86,1275.51 1628.08,1182.8 1617.57,1175.95Z"/>
            <path d="M1617.99,1175.29C1619.38,1176.2 1620.35,1178.42 1620.79,1181.71C1621.74,1188.74 1620.59,1200.87 1618.4,1214.21C1614.67,1236.97 1607.93,1263.26 1603.71,1273.48C1602.93,1275.35 1602.22,1276.71 1601.64,1277.44C1601.29,1277.88 1600.94,1278.14 1600.64,1278.25C1600.23,1278.4 1599.6,1278.42 1598.78,1278.25C1597.8,1278.05 1596.47,1277.58 1594.88,1276.87C1584.66,1272.35 1562.94,1258.12 1549.15,1247.9C1543.96,1244.04 1539.88,1240.75 1537.96,1238.75C1537.31,1238.08 1536.89,1237.52 1536.7,1237.13C1536.63,1236.96 1536.58,1236.81 1536.56,1236.68L1536.56,1236.31C1536.61,1235.96 1536.79,1235.49 1537.13,1234.92C1537.78,1233.81 1539.05,1232.22 1540.81,1230.27C1550.63,1219.39 1576.21,1196.85 1595.36,1184.09C1601.57,1179.95 1607.11,1176.84 1611.24,1175.45C1614.26,1174.44 1616.59,1174.38 1617.99,1175.29ZM1617.57,1175.95C1607.06,1169.1 1538.32,1229.8 1537.33,1236.43C1536.79,1239.99 1594.59,1279.63 1600.38,1277.51C1605.86,1275.51 1628.08,1182.8 1617.57,1175.95Z"/>
        </g>
        <g transform="matrix(1.0214,0,0,0.927136,-1863.82,1171.88)">
            <g transform="matrix(337.059,0,0,337.059,2580.57,1053.73)">
                <path d="M0.516,-0.76C0.538,-0.751 0.549,-0.735 0.549,-0.713C0.532,-0.673 0.523,-0.65 0.523,-0.645L0.527,-0.645C0.632,-0.645 0.684,-0.626 0.684,-0.588C0.684,-0.557 0.648,-0.536 0.576,-0.527C0.507,-0.527 0.473,-0.52 0.473,-0.506C0.456,-0.464 0.437,-0.424 0.416,-0.387L0.426,-0.387C0.488,-0.395 0.52,-0.402 0.52,-0.408C0.52,-0.482 0.536,-0.52 0.57,-0.52C0.603,-0.52 0.619,-0.497 0.619,-0.451L0.619,-0.412C0.619,-0.406 0.622,-0.402 0.627,-0.402L0.727,-0.402C0.781,-0.402 0.809,-0.358 0.809,-0.27L0.809,-0.244C0.809,-0.17 0.777,-0.12 0.713,-0.094L0.688,-0.094C0.658,-0.094 0.641,-0.114 0.637,-0.154L0.637,-0.166C0.637,-0.174 0.642,-0.178 0.652,-0.18L0.691,-0.166C0.712,-0.192 0.723,-0.225 0.723,-0.266L0.723,-0.291L0.717,-0.313L0.619,-0.313L0.619,-0.273C0.613,-0.053 0.598,0.057 0.576,0.057L0.559,0.057C0.556,0.057 0.551,0.053 0.545,0.045C0.551,0.02 0.555,0 0.555,-0.016C0.555,-0.044 0.544,-0.141 0.523,-0.305C0.469,-0.302 0.438,-0.298 0.43,-0.291C0.43,-0.287 0.431,-0.283 0.434,-0.277C0.431,-0.214 0.43,-0.162 0.43,-0.123L0.43,-0.088C0.43,-0.083 0.424,-0.077 0.412,-0.072L0.391,-0.072C0.37,-0.072 0.351,-0.128 0.334,-0.24L0.33,-0.24C0.288,-0.191 0.257,-0.166 0.234,-0.166L0.223,-0.166C0.199,-0.166 0.188,-0.178 0.188,-0.201L0.188,-0.205C0.253,-0.26 0.317,-0.363 0.381,-0.516C0.304,-0.522 0.266,-0.546 0.266,-0.588L0.266,-0.602C0.266,-0.639 0.307,-0.658 0.391,-0.658L0.412,-0.658L0.434,-0.652C0.451,-0.724 0.477,-0.76 0.512,-0.76L0.516,-0.76Z" style="fill-rule:nonzero;stroke:black;stroke-width:0.02px;stroke-linecap:butt;stroke-miterlimit:2;"/>
            </g>
            <g transform="matrix(337.059,0,0,337.059,2893.6,1053.73)">
                <path d="M0.67,-0.625C0.76,-0.625 0.805,-0.605 0.805,-0.564L0.805,-0.553C0.805,-0.508 0.742,-0.486 0.615,-0.486C0.615,-0.484 0.596,-0.481 0.559,-0.479C0.556,-0.473 0.555,-0.467 0.555,-0.461L0.555,-0.217C0.555,-0.124 0.526,-0.078 0.469,-0.078L0.463,-0.078C0.389,-0.09 0.352,-0.114 0.352,-0.15C0.354,-0.174 0.366,-0.186 0.387,-0.186C0.431,-0.174 0.461,-0.168 0.477,-0.168L0.48,-0.178C0.469,-0.288 0.463,-0.361 0.463,-0.396L0.463,-0.453L0.469,-0.475L0.463,-0.475C0.331,-0.468 0.258,-0.465 0.244,-0.465L0.24,-0.465C0.208,-0.471 0.191,-0.486 0.191,-0.508L0.191,-0.521C0.191,-0.574 0.324,-0.607 0.588,-0.621C0.632,-0.624 0.66,-0.625 0.67,-0.625Z" style="fill-rule:nonzero;stroke:black;stroke-width:0.02px;stroke-linecap:butt;stroke-miterlimit:2;"/>
            </g>
            <g transform="matrix(337.059,0,0,337.059,3206.64,1053.73)">
                <path d="M0.574,-0.723C0.599,-0.701 0.611,-0.673 0.611,-0.641C0.633,-0.641 0.654,-0.639 0.672,-0.637L0.668,-0.666C0.668,-0.7 0.682,-0.717 0.711,-0.717C0.734,-0.717 0.746,-0.695 0.746,-0.652L0.746,-0.637C0.746,-0.63 0.779,-0.623 0.846,-0.615C0.86,-0.602 0.867,-0.594 0.867,-0.592L0.867,-0.576C0.867,-0.555 0.826,-0.545 0.742,-0.545C0.736,-0.514 0.729,-0.498 0.721,-0.498L0.711,-0.498C0.701,-0.498 0.692,-0.512 0.686,-0.541C0.631,-0.537 0.604,-0.53 0.604,-0.52C0.601,-0.471 0.594,-0.447 0.582,-0.447L0.557,-0.447C0.545,-0.447 0.532,-0.473 0.518,-0.523C0.451,-0.523 0.418,-0.545 0.418,-0.588C0.418,-0.618 0.447,-0.638 0.504,-0.648C0.504,-0.677 0.517,-0.702 0.543,-0.723L0.574,-0.723ZM0.189,-0.52C0.199,-0.52 0.216,-0.511 0.242,-0.494C0.352,-0.486 0.406,-0.462 0.406,-0.42C0.414,-0.367 0.421,-0.314 0.428,-0.262C0.428,-0.215 0.397,-0.191 0.336,-0.191L0.332,-0.191C0.313,-0.191 0.285,-0.195 0.25,-0.201L0.246,-0.191L0.246,-0.166C0.246,-0.132 0.233,-0.115 0.207,-0.115L0.186,-0.115C0.157,-0.115 0.133,-0.206 0.113,-0.387C0.113,-0.475 0.136,-0.52 0.182,-0.52L0.189,-0.52ZM0.26,-0.408L0.264,-0.381C0.264,-0.348 0.26,-0.314 0.254,-0.279L0.268,-0.279C0.286,-0.279 0.314,-0.281 0.354,-0.283L0.354,-0.287C0.354,-0.368 0.337,-0.408 0.303,-0.408C0.292,-0.411 0.278,-0.412 0.26,-0.412L0.26,-0.408ZM0.521,-0.402C0.538,-0.402 0.557,-0.388 0.578,-0.359C0.578,-0.385 0.62,-0.398 0.703,-0.398C0.82,-0.398 0.879,-0.364 0.879,-0.295C0.882,-0.264 0.883,-0.224 0.883,-0.176L0.883,-0.17C0.883,-0.101 0.866,-0.061 0.832,-0.051C0.811,-0.044 0.794,-0.041 0.779,-0.041L0.746,-0.041C0.688,-0.041 0.634,-0.047 0.586,-0.059L0.586,-0.016C0.586,0 0.579,0.012 0.564,0.02L0.543,0.02C0.522,0.02 0.493,-0.07 0.457,-0.248C0.454,-0.248 0.453,-0.264 0.453,-0.295L0.453,-0.338C0.458,-0.381 0.475,-0.402 0.504,-0.402L0.521,-0.402ZM0.582,-0.33C0.587,-0.307 0.59,-0.279 0.59,-0.248L0.621,-0.252L0.668,-0.252L0.668,-0.301C0.668,-0.305 0.646,-0.31 0.604,-0.316C0.604,-0.32 0.596,-0.325 0.582,-0.33ZM0.711,-0.305L0.711,-0.256L0.811,-0.256C0.811,-0.288 0.788,-0.305 0.742,-0.305L0.711,-0.305ZM0.715,-0.184C0.715,-0.168 0.714,-0.146 0.711,-0.119L0.721,-0.115L0.807,-0.115C0.809,-0.115 0.813,-0.119 0.818,-0.127L0.818,-0.191C0.76,-0.186 0.725,-0.184 0.715,-0.184ZM0.66,-0.176C0.645,-0.176 0.62,-0.174 0.586,-0.17L0.582,-0.148L0.582,-0.123L0.625,-0.119L0.678,-0.119C0.673,-0.154 0.669,-0.174 0.668,-0.18L0.66,-0.176Z" style="fill-rule:nonzero;stroke:black;stroke-width:0.02px;stroke-linecap:butt;stroke-miterlimit:2;"/>
            </g>
        </g>
        <g transform="matrix(1,0,0,1,-24.0886,-17.2792)">
            <path d="M778.523,1451.05C752.878,1488.24 751.9,1484.18 723.988,1536.47" style="fill:none;stroke:white;stroke-width:26.46px;"/>
        </g>
        <path d="M780.609,1406.93L776.834,1404.5" style="fill:none;stroke:white;stroke-width:26.46px;"/>
    </g>
    <g id="图层1">
    </g>
</svg>
